<svg width="15" height="15" viewBox="0 0 15 15" fill="none" xmlns="http://www.w3.org/2000/svg">
<g clip-path="url(#clip0_1_368)">
<ellipse cx="8.43751" cy="9.375" rx="2.34375" ry="3.28125" fill="#FFCE51"/>
<path d="M12.175 7.71874C11.1938 5.16874 7.70004 5.03124 8.54379 1.32499C8.60629 1.04999 8.31254 0.837494 8.07504 0.981244C5.80629 2.31874 4.17504 4.99999 5.54379 8.51249C5.65629 8.79999 5.31879 9.06874 5.07504 8.88124C3.94379 8.02499 3.82504 6.79374 3.92504 5.91249C3.96254 5.58749 3.53754 5.43124 3.35629 5.69999C2.93129 6.34999 2.50004 7.39999 2.50004 8.98124C2.73754 12.4812 5.69379 13.5562 6.75629 13.6937C8.27504 13.8875 9.91879 13.6062 11.1 12.525C12.4 11.3187 12.875 9.39374 12.175 7.71874ZM6.37504 10.8625C7.27504 10.6437 7.73754 9.99374 7.86254 9.41874C8.06879 8.52499 7.26254 7.64999 7.80629 6.23749C8.01254 7.40624 9.85004 8.13749 9.85004 9.41249C9.90004 10.9937 8.18754 12.35 6.37504 10.8625Z" fill="#FF7324"/>
</g>
<defs>
<clipPath id="clip0_1_368">
<rect width="15" height="15" fill="white"/>
</clipPath>
</defs>
</svg>
