<svg width="72" height="100" viewBox="0 0 72 100" fill="none" xmlns="http://www.w3.org/2000/svg">
<path d="M21 0.5H36H43L59 2L68 7L71 16L69.5 23.5V27V40C69.5 46.4 68.5 46.6667 68 46C67.6667 48.6667 67 56 67 64V71L64 82L61 89.5L55.5 99H36H16.5L14 96L9.5 86.5L6.5 79L4.5 72V58V52.5V50.5L2.5 44.5V32V27V26L1 19.5L2.5 9.5L7 4.5L12.5 2L21 0.5Z" fill="#D9D9D9" fill-opacity="0.29"/>
<path d="M36 0.5H21L12.5 2L7 4.5L2.5 9.5L1 19.5L2.5 26V27M36 0.5H43L59 2L68 7L71 16L69.5 23.5C69.5 24.3304 69.5 25.5415 69.5 27M36 0.5V16V27M36 99H16.5L14 96L9.5 86.5L6.5 79L4.5 72V58V52.5M36 99H55.5L61 89.5L64 82L67 71C67 72 67 72 67 64C67 56 67.6667 48.6667 68 46C68.5 46.6667 69.5 46.4 69.5 40C69.5 35.4756 69.5 30.5182 69.5 27M36 99V52.5M36 51.5V52.5M36 51.5L67 52M36 51.5V27M4.5 52.5V50.5L2.5 44.5V32V27M4.5 52.5H36M36 27H69.5M36 27H2.5" stroke="black" stroke-opacity="0.16"/>
</svg>
