<svg width="148" height="70" viewBox="0 0 148 70" fill="none" xmlns="http://www.w3.org/2000/svg">
<path d="M53 4.5L19.5 0.5L5.5 26.5L0.5 40.5L7.5 55.5L19.5 65.5L37 70L64.5 67.5L76.5 58L88 67.5L103.5 70L126 67.5L140 58L148 47.5V34.5L140 18.5L130.5 0.5L117.5 2L97.5 4.5L82.5 10H67.5L53 4.5Z" fill="#D9D9D9" fill-opacity="0.31"/>
<path d="M67.3227 10.4675L67.4084 10.5H67.5H82.5H82.5888L82.6721 10.4694L97.6186 4.98907L117.557 2.4967L117.562 2.49614L130.217 1.03592L139.553 18.7236L139.558 18.7334L147.5 34.618V47.3312L139.652 57.6321L125.822 67.0167L103.512 69.4955L88.2137 67.028L76.8184 57.6145L76.5067 57.357L76.1897 57.608L64.3064 67.0155L37.0408 69.4942L19.7336 65.0438L7.90587 55.1874L1.03996 40.4747L5.95816 26.7038L19.7788 1.03684L52.8799 4.98921L67.3227 10.4675Z" stroke="#020202" stroke-opacity="0.16"/>
</svg>
