<svg width="44" height="80" viewBox="0 0 44 80" fill="none" xmlns="http://www.w3.org/2000/svg">
<path d="M2 5V1C4 1.5 6 2.5 8.5 4.5C9.88783 5.61026 11.6662 6.96892 12.5 8C13.5428 9.28949 14.9995 9.83297 17.5 11.5C21.1 13.9 22.6667 13.8333 23 13.5H26.5H30H34C34.6667 12.8333 34.9 10.5 36.5 10.5C38.1 10.5 38 15.5 38 17L40 24.5L41.5 29L42 36L43.5 43V48.5V54L41.5 59C41.1667 59.8333 40 62.6 38 67C36 71.4 35.8333 71.1667 36 70.5L32 78.5L28 74L23 70.5L19 67L14.5 61.5L13 59L11 54C10.5 52.6667 8.7 48.6 5.5 43L4 36L2 29V21.5L1 15.5V11.5V8.5L2 5Z" fill="#D9D9D9" fill-opacity="0.33" stroke="black"/>
</svg>
