<svg width="45" height="123" viewBox="0 0 45 123" fill="none" xmlns="http://www.w3.org/2000/svg">
<path d="M22 2.5L44 1L41 38.5L30.5 69.5L24 94.5V122.5L16.5 92L7.5 65.5L4.99998 49L1.531 29.0532C0.13792 29.8653 0.414913 27.8528 1 26L1.531 29.0532C2.5189 28.4774 4.34666 26.4811 7.5 22C15.1 11.2 20.8333 5.33333 22 2.5Z" fill="#D9D9D9" fill-opacity="0.46"/>
<path d="M22 2.5L44 1L41 38.5L30.5 69.5L24 94.5V122.5L16.5 92L7.5 65.5L4.99998 49L1 26C0 29.1667 -0.0999999 32.8 7.5 22C15.1 11.2 20.8333 5.33333 22 2.5Z" stroke="black"/>
</svg>
