<svg width="50" height="57" viewBox="0 0 50 57" fill="none" xmlns="http://www.w3.org/2000/svg">
<path d="M11.5 1H6L1.5 1.50001L1 4.00001L3.5 8.50001L9.5 17L13.5 25L17 31.5L18.5 34.5C18.8333 35 20.2 37.1 23 41.5C26.5 47 29 47 35.5 51.5C40.7 55.1 40.3333 56 39.5 56H46.5L48 53C48.5 50.3333 49.5 43.2 49.5 36C49.5 27 48.5 31.5 44.5 19C43.5 17.6667 36.5 9.00001 30.5 5.00001C23 1.04904e-05 26 3.00001 19.5 1.00001L11.5 1Z" fill="#D9D9D9" fill-opacity="0.36" stroke="black" stroke-opacity="0.16"/>
</svg>
