<svg width="51" height="54" viewBox="0 0 51 54" fill="none" xmlns="http://www.w3.org/2000/svg">
<path d="M1 48L2.5 53H12.5C14 52 18.2 49.1 23 45.5C27.8 41.9 28.6667 40.3333 28.5 40L31 37.5L43 13.5L45 11.5C45.5 10.6667 49 5.5 50 2.5C51.0198 -0.559412 49.1667 0.999996 48.5 1.5H47.5H46C45 0.999999 42.9 1.49999 40.5 1.49999C38.1 1.49999 38 0.999986 38 1.49998L36.5 1.5H34.5L31.5 1.99999L25.5 3.5L19 5.99999L14.5 8.49999L10 13.5C8.5 15.5 5.1 20.6 3.5 25L1 32V41V48Z" fill="#D9D9D9" fill-opacity="0.38" stroke="black" stroke-opacity="0.16"/>
</svg>
